<?xml version="1.0" standalone="no"?>
<!DOCTYPE svg PUBLIC "-//W3C//DTD SVG 20010904//EN"
 "http://www.w3.org/TR/2001/REC-SVG-20010904/DTD/svg10.dtd">
<svg version="1.0" xmlns="http://www.w3.org/2000/svg"
 width="700.000000pt" height="700.000000pt" viewBox="0 0 700.000000 700.000000"
 preserveAspectRatio="xMidYMid meet">
<metadata>
Created by potrace 1.11, written by Peter Selinger 2001-2013
</metadata>
<g transform="translate(0.000000,700.000000) scale(0.100000,-0.100000)"
fill="#000000" stroke="none">
<path d="M3269 6806 c-2 -2 -38 -6 -79 -10 -65 -5 -177 -20 -245 -31 -11 -1
-67 -13 -125 -25 -58 -12 -113 -24 -122 -25 -10 -2 -22 -6 -26 -9 -5 -3 -22
-8 -39 -10 -141 -25 -537 -184 -723 -291 -36 -21 -85 -49 -110 -63 -45 -26
-272 -178 -307 -206 -188 -153 -354 -307 -474 -441 -299 -336 -553 -788 -683
-1217 -58 -194 -87 -324 -111 -498 -3 -25 -8 -56 -10 -70 -15 -102 -19 -185
-20 -395 0 -132 4 -276 8 -320 8 -84 33 -263 42 -305 3 -14 8 -38 11 -55 3
-16 9 -48 15 -70 5 -22 11 -48 14 -57 33 -142 141 -464 165 -492 4 -6 9 -15
10 -21 5 -23 25 -67 85 -187 183 -363 452 -712 765 -991 139 -124 390 -304
556 -398 81 -46 272 -138 359 -174 50 -20 104 -42 120 -49 17 -8 71 -26 120
-41 50 -15 101 -31 115 -35 36 -12 168 -46 215 -55 22 -5 45 -9 50 -10 12 -3
83 -16 105 -20 8 -1 38 -5 65 -10 28 -4 58 -9 68 -11 174 -31 711 -24 911 12
17 3 42 7 56 9 140 20 436 99 585 155 319 119 574 257 842 456 519 384 924
932 1138 1534 14 41 30 85 35 96 8 19 67 235 75 273 2 9 10 48 19 86 16 79 41
243 53 355 16 147 6 690 -12 720 -2 3 -6 37 -10 75 -4 39 -9 73 -11 76 -2 3
-6 21 -9 40 -53 325 -200 728 -376 1034 -85 148 -212 337 -288 428 -243 291
-452 485 -721 669 -242 165 -531 312 -776 393 -44 15 -88 30 -99 35 -11 5 -29
10 -40 13 -11 2 -63 16 -115 30 -52 14 -120 30 -150 36 -30 6 -66 14 -80 17
-14 3 -41 7 -60 10 -19 2 -48 6 -65 8 -16 3 -50 7 -75 10 -25 4 -63 9 -85 12
-43 7 -550 15 -556 10z"/>
</g>
</svg>
