<?xml version="1.0" encoding="utf-8"?>
<!-- Generator: Adobe Illustrator 24.2.1, SVG Export Plug-In . SVG Version: 6.00 Build 0)  -->
<svg version="1.1" id="Layer_1" xmlns="http://www.w3.org/2000/svg" xmlns:xlink="http://www.w3.org/1999/xlink" x="0px" y="0px"
	 viewBox="0 0 391.4 248.3" style="enable-background:new 0 0 391.4 248.3;" xml:space="preserve">
<style type="text/css">
	.st0{fill:#245148;}
	.st1{fill:#F8F6F1;}
	.st2{clip-path:url(#SVGID_2_);fill:#111111;}
	.st3{clip-path:url(#SVGID_2_);fill:#151312;}
	.st4{clip-path:url(#SVGID_2_);fill:#C2C0AA;}
	.st5{clip-path:url(#SVGID_2_);fill:#245148;}
	.st6{clip-path:url(#SVGID_2_);fill:#9E5852;}
	.st7{clip-path:url(#SVGID_2_);fill:#B7C5AD;}
	.st8{clip-path:url(#SVGID_2_);fill:#F9F7F1;}
	.st9{clip-path:url(#SVGID_2_);}
	.st10{clip-path:url(#SVGID_4_);fill:#12100B;}
	.st11{clip-path:url(#SVGID_2_);fill:#12100B;}
	.st12{fill:none;stroke:#F8F6F1;stroke-width:0.5;stroke-miterlimit:10;}
</style>
<g>
	<g>
		<g>
			<path class="st1" d="M191.5,73.6c-0.4,0-0.8-0.3-0.8-0.8V6.5h-37.1c-0.4,0-0.8-0.3-0.8-0.8c0-0.4,0.3-0.8,0.8-0.8h37.9
				c0.4,0,0.8,0.3,0.8,0.8v67C192.3,73.2,191.9,73.6,191.5,73.6"/>
			<path class="st1" d="M183.1,73.6c-0.4,0-0.8-0.3-0.8-0.8V15h-28.7c-0.4,0-0.8-0.3-0.8-0.8s0.3-0.8,0.8-0.8h29.4
				c0.4,0,0.8,0.3,0.8,0.8v58.6C183.8,73.2,183.5,73.6,183.1,73.6"/>
			<path class="st1" d="M174.6,73.6c-0.4,0-0.8-0.3-0.8-0.8V23.4h-20.2c-0.4,0-0.8-0.3-0.8-0.8c0-0.4,0.3-0.8,0.8-0.8h21
				c0.4,0,0.8,0.3,0.8,0.8v50.2C175.4,73.2,175,73.6,174.6,73.6"/>
			<path class="st1" d="M199.9,73.6c-0.4,0-0.8-0.3-0.8-0.8v-67c0-0.4,0.3-0.8,0.8-0.8h37.9c0.4,0,0.8,0.3,0.8,0.8
				c0,0.4-0.3,0.8-0.8,0.8h-37.1v66.3C200.6,73.2,200.3,73.6,199.9,73.6"/>
			<path class="st1" d="M208.3,73.6c-0.4,0-0.8-0.3-0.8-0.8V14.2c0-0.4,0.3-0.8,0.8-0.8h29.4c0.4,0,0.8,0.3,0.8,0.8
				s-0.3,0.8-0.8,0.8h-28.7v57.8C209.1,73.2,208.7,73.6,208.3,73.6"/>
			<path class="st1" d="M216.8,73.6c-0.4,0-0.8-0.3-0.8-0.8V22.6c0-0.4,0.3-0.8,0.8-0.8h21c0.4,0,0.8,0.3,0.8,0.8
				c0,0.4-0.3,0.8-0.8,0.8h-20.2v49.4C217.5,73.2,217.2,73.6,216.8,73.6"/>
			<path class="st1" d="M27.9,158c-0.4-1.6-1-3.2-1.6-4c-0.8-1.3-1.3-1.7-3.9-1.7h-4.9V176c0,3.8,0.4,4.3,5,4.6v1.4H8.4v-1.4
				c4.5-0.3,4.9-0.8,4.9-4.6v-23.7H8.9c-2.7,0-3.5,0.3-4.3,1.8c-0.6,1-1,2.1-1.6,3.9H1.5c0.3-3,0.6-6,0.7-8.8h1.1
				c0.7,1.2,1.3,1.1,2.6,1.1h19.3c1.4,0,1.8-0.2,2.5-1.1h1.2c0,2.3,0.2,5.8,0.4,8.6L27.9,158z"/>
			<path class="st1" d="M70.8,174.3c-0.3,1.3-1.6,6.3-2.1,7.7H45v-1.4c4.5-0.3,4.9-0.8,4.9-4.8v-19.2c0-4.3-0.5-4.6-4.2-4.9v-1.4
				h14.9c4.6,0,6.5,0,7.1-0.1c0,1.2,0.2,4.9,0.4,7.4l-1.5,0.2c-0.4-1.7-0.9-2.7-1.5-3.7c-0.8-1.6-1.9-1.9-4.8-1.9h-4.6
				c-1.5,0-1.6,0.1-1.6,1.6v10.8h5.4c3.7,0,3.9-0.7,4.5-4h1.5v10H64c-0.6-3.5-1-4-4.5-4h-5.4v9.7c0,3.4,1.1,3.7,3.5,3.7h4.5
				c3,0,3.5-0.4,4.5-1.7c0.9-1,1.9-3,2.6-4.5L70.8,174.3z"/>
			<path class="st1" d="M113.5,182v-1.4c4-0.4,4.1-0.7,4.1-5.9l0-19.9c-4,8.9-10.4,22.8-12.1,27.1h-1.3c-1.7-4.4-7.2-17.8-10.9-26.6
				c-0.8,17-0.9,20.9-0.9,21.8c0,2.7,1.3,3.1,4.6,3.5v1.4H85.5v-1.4c2.8-0.3,4-0.9,4.4-3.5c0.3-2.1,0.3-3.9,1.6-21.7
				c0.2-2.5-0.3-3.4-4.6-3.7v-1.4h8.5l10.8,24.7l11.5-24.7h8.5v1.4c-4.2,0.5-4.7,0.9-4.6,4.3l0.2,18.7c0.2,5.2,0.3,5.5,4.6,5.9v1.4
				H113.5z"/>
			<path class="st1" d="M155.5,150.4c3.5,0,6.2,0.6,8.2,2.1c1.9,1.4,3.2,3.7,3.2,6.9c0,7.1-6.1,10-10.7,10c-0.5,0-1,0-1.3-0.1
				l-3.4-0.9v7.6c0,4.1,0.3,4.2,4.8,4.7v1.4H143v-1.4c4.2-0.4,4.4-0.7,4.4-4.8v-19.3c0-4.3-0.5-4.4-4.4-4.8v-1.4H155.5z
				 M151.6,166.7c0.6,0.3,1.9,0.6,3.6,0.6c3.3,0,7.3-1.7,7.3-7.8c0-5.4-3.5-7.5-7.6-7.5c-1.4,0-2.4,0.2-2.7,0.6
				c-0.4,0.3-0.5,0.9-0.5,2.2V166.7z"/>
			<path class="st1" d="M207.6,173.9c-0.3,1.5-1.8,6.6-2.2,8.1h-22.6v-1.4c4.4-0.4,4.8-0.7,4.8-4.8v-19.3c0-4.1-0.5-4.4-4.4-4.8
				v-1.4h13v1.4c-3.9,0.4-4.4,0.6-4.4,4.8v19.8c0,3,0.4,3.7,3.2,3.7c0,0,3.6,0,3.8,0c2.5,0,3.2-0.3,4.3-1.5c1.2-1.3,2.2-3.2,3-5
				L207.6,173.9z"/>
			<path class="st1" d="M248.3,174.3c-0.3,1.3-1.6,6.3-2.1,7.7h-23.7v-1.4c4.5-0.3,4.9-0.8,4.9-4.8v-19.2c0-4.3-0.5-4.6-4.2-4.9
				v-1.4h14.9c4.6,0,6.5,0,7.1-0.1c0,1.2,0.2,4.9,0.4,7.4l-1.5,0.2c-0.4-1.7-0.9-2.7-1.5-3.7c-0.8-1.6-1.9-1.9-4.8-1.9h-4.6
				c-1.5,0-1.6,0.1-1.6,1.6v10.8h5.4c3.7,0,3.9-0.7,4.5-4h1.5v10h-1.5c-0.6-3.5-1-4-4.5-4h-5.4v9.7c0,3.4,1.1,3.7,3.5,3.7h4.5
				c3,0,3.5-0.4,4.5-1.7c0.9-1,1.9-3,2.6-4.5L248.3,174.3z"/>
			<path class="st1" d="M289.5,158c-0.4-1.6-1-3.2-1.6-4c-0.8-1.3-1.3-1.7-3.9-1.7h-4.9V176c0,3.8,0.4,4.3,5,4.6v1.4H270v-1.4
				c4.5-0.3,4.9-0.8,4.9-4.6v-23.7h-4.4c-2.7,0-3.5,0.3-4.3,1.8c-0.6,1-1,2.1-1.6,3.9h-1.5c0.3-3,0.6-6,0.7-8.8h1.1
				c0.7,1.2,1.3,1.1,2.6,1.1h19.3c1.4,0,1.8-0.2,2.5-1.1h1.2c0,2.3,0.2,5.8,0.4,8.6L289.5,158z"/>
			<path class="st1" d="M323.6,149.7c8.3,0,15.8,6.4,15.8,16.1c0,10.5-7.1,17-16.1,17c-9.3,0-16.2-7.1-16.2-16.3
				C307.1,157.8,313.3,149.7,323.6,149.7 M322.6,151.5c-5.5,0-10.4,4.6-10.4,13.7c0,9.1,5,15.7,11.9,15.7c5.9,0,10.3-4.4,10.3-13.8
				C334.4,156.9,329,151.5,322.6,151.5"/>
			<path class="st1" d="M389.9,151.7c-3.1,0.3-4.1,0.8-4.3,3.1c0,1.6-0.1,3.6-0.1,8.1v19.5h-1.9L362.8,157v12.2c0,4.4,0.1,6.6,0.2,8
				c0.1,2.5,1.3,3.2,4.8,3.5v1.4H356v-1.4c3-0.2,4.2-1,4.4-3.4c0.1-1.6,0.2-3.7,0.2-8.2v-12.4c0-1.4-0.1-2.1-1-3.2
				c-0.9-1.2-1.9-1.5-4.3-1.8v-1.4h7.3l20.6,24.5v-11.9c0-4.5-0.1-6.6-0.2-8.1c-0.1-2.2-1.3-2.9-5.2-3.1v-1.4h12V151.7z"/>
			<path class="st1" d="M116.5,243.1c-0.4,0-0.7,0-1.1-0.1c-2.1-0.1-3.2-0.7-4.5-2.5c-1.1-1.5-2.1-3.3-3-4.7
				c-0.6-0.9-0.9-1.1-2.4-1.1h-1v4.5c0,2.4,0.3,2.6,2.6,2.8v0.8h-7.7v-0.8c2.4-0.3,2.6-0.4,2.6-2.8v-11.5c0-2.4-0.3-2.5-2.6-2.8
				v-0.8h7.3c2.1,0,3.5,0.3,4.6,1c1.2,0.7,2,2,2,3.8c0,2.5-1.6,4-3.7,4.9c0.5,0.9,1.8,2.8,2.6,4.1c1.1,1.5,1.6,2.2,2.3,3
				c0.8,0.8,1.4,1.1,2.1,1.3L116.5,243.1z M105.9,233.8c1.5,0,2.4-0.2,3.2-0.8c1.1-0.8,1.6-2,1.6-3.5c0-3.1-2-4.2-4.3-4.2
				c-0.8,0-1.3,0.1-1.5,0.3c-0.3,0.2-0.3,0.5-0.3,1.2v7H105.9z"/>
			<path class="st1" d="M139.7,238.3c-0.2,0.7-0.9,3.7-1.2,4.6h-14v-0.8c2.7-0.2,2.9-0.5,2.9-2.8v-11.4c0-2.6-0.3-2.7-2.5-2.9v-0.8
				h8.8c2.7,0,3.8,0,4.2-0.1c0,0.7,0.1,2.9,0.3,4.4l-0.9,0.1c-0.3-1-0.5-1.6-0.9-2.2c-0.5-0.9-1.1-1.1-2.8-1.1h-2.7
				c-0.9,0-0.9,0.1-0.9,0.9v6.4h3.2c2.2,0,2.3-0.4,2.6-2.4h0.9v5.9h-0.9c-0.4-2.1-0.6-2.4-2.7-2.4h-3.2v5.7c0,2,0.6,2.2,2.1,2.2h2.7
				c1.8,0,2-0.3,2.7-1c0.5-0.6,1.1-1.8,1.6-2.6L139.7,238.3z"/>
			<path class="st1" d="M158.9,228.6c-0.5-1.9-1.3-3.8-4-3.8c-2.2,0-3,1.6-3,3.1c0,2,1.3,3,3.6,4.2c3.4,1.8,4.9,3.1,4.9,5.8
				c0,3-2.6,5.3-6.3,5.3c-1.7,0-3.2-0.5-4.4-0.9c-0.2-0.8-0.6-2.8-0.8-4.3l0.9-0.2c0.6,1.9,1.8,4.4,4.8,4.4c2.1,0,3.3-1.4,3.3-3.3
				c0-2.2-1.2-3.1-3.7-4.5c-3-1.6-4.7-3-4.7-5.7c0-2.6,2.1-5,5.9-5c1.6,0,3.2,0.4,3.8,0.5c0.1,1,0.2,2.2,0.5,4.1L158.9,228.6z"/>
			<path class="st1" d="M185.1,238.3c-0.2,0.7-0.9,3.7-1.2,4.6h-14v-0.8c2.7-0.2,2.9-0.5,2.9-2.8v-11.4c0-2.6-0.3-2.7-2.5-2.9v-0.8
				h8.8c2.7,0,3.8,0,4.2-0.1c0,0.7,0.1,2.9,0.3,4.4l-0.9,0.1c-0.3-1-0.5-1.6-0.9-2.2c-0.5-0.9-1.1-1.1-2.8-1.1h-2.7
				c-0.9,0-0.9,0.1-0.9,0.9v6.4h3.2c2.2,0,2.3-0.4,2.6-2.4h0.9v5.9h-0.9c-0.4-2.1-0.6-2.4-2.7-2.4h-3.2v5.7c0,2,0.6,2.2,2.1,2.2h2.7
				c1.8,0,2-0.3,2.7-1c0.5-0.6,1.1-1.8,1.6-2.6L185.1,238.3z"/>
			<path class="st1" d="M203.9,242.9v-0.8c1.9-0.2,2.1-0.5,1.7-1.6c-0.4-1.1-0.9-2.6-1.6-4.4h-6.2c-0.5,1.3-0.9,2.4-1.3,3.6
				c-0.6,1.9-0.2,2.1,2.1,2.4v0.8h-6.6v-0.8c1.8-0.2,2.3-0.4,3.3-3l5.9-15.1l0.9-0.2c1.8,4.9,3.8,10.3,5.6,15.3
				c0.9,2.5,1.2,2.7,3.2,3v0.8H203.9z M201.1,227.6c-0.9,2.5-1.9,5.1-2.8,7.4h5.4L201.1,227.6z"/>
			<path class="st1" d="M236.4,243.1c-0.4,0-0.7,0-1.1-0.1c-2.1-0.1-3.2-0.7-4.5-2.5c-1.1-1.5-2.1-3.3-3-4.7
				c-0.6-0.9-0.9-1.1-2.4-1.1h-1v4.5c0,2.4,0.3,2.6,2.6,2.8v0.8h-7.7v-0.8c2.4-0.3,2.6-0.4,2.6-2.8v-11.5c0-2.4-0.3-2.5-2.6-2.8
				v-0.8h7.3c2.1,0,3.5,0.3,4.6,1c1.2,0.7,2,2,2,3.8c0,2.5-1.6,4-3.7,4.9c0.5,0.9,1.8,2.8,2.6,4.1c1.1,1.5,1.6,2.2,2.3,3
				c0.8,0.8,1.4,1.1,2.1,1.3L236.4,243.1z M225.8,233.8c1.5,0,2.4-0.2,3.2-0.8c1.1-0.8,1.6-2,1.6-3.5c0-3.1-2-4.2-4.3-4.2
				c-0.8,0-1.3,0.1-1.5,0.3c-0.3,0.2-0.3,0.5-0.3,1.2v7H225.8z"/>
			<path class="st1" d="M261.8,238.3c-0.4,1.4-1.1,3.4-1.6,4.3c-0.8,0.2-3.1,0.7-5.3,0.7c-6.9,0-10.4-4.6-10.4-9.6
				c0-5.9,4.5-9.9,10.9-9.9c2.5,0,4.5,0.5,5.4,0.7c0.1,1.3,0.3,3,0.5,4.5l-0.9,0.2c-0.6-1.9-1.3-3.1-2.7-3.7c-0.7-0.3-1.9-0.5-3-0.5
				c-4.7,0-7.2,3.5-7.2,8.2c0,5.5,2.9,9.1,7.5,9.1c2.9,0,4.4-1.4,5.8-4.2L261.8,238.3z"/>
			<path class="st1" d="M291.7,225c-2.4,0.2-2.6,0.4-2.6,2.8v11.5c0,2.4,0.3,2.5,2.6,2.8v0.8H284v-0.8c2.4-0.3,2.6-0.3,2.6-2.8v-5.7
				h-9.8v5.7c0,2.4,0.2,2.5,2.6,2.8v0.8h-7.7v-0.8c2.3-0.3,2.6-0.3,2.6-2.8v-11.5c0-2.4-0.3-2.6-2.6-2.8v-0.8h7.7v0.8
				c-2.3,0.2-2.6,0.4-2.6,2.8v4.6h9.8v-4.6c0-2.4-0.3-2.6-2.6-2.8v-0.8h7.7V225z"/>
		</g>
	</g>
</g>
</svg>
